<svg xmlns="http://www.w3.org/2000/svg" viewBox="0 0 820 310" role="img">
<rect width="820" height="310" fill="#fffdf8"/>
<text x="52" y="28" font-size="18" font-weight="700">Phrase audit pitch trace</text>
<text x="52" y="48" font-size="13" fill="#555">black pYIN / blue YIN / rust spectral peak</text>
<rect x="52.0" y="56" width="41.7" height="214" fill="#F2D9D4" opacity="0.5"/>
<line x1="52" x2="772" y1="260.0" y2="260.0" stroke="#ddd" stroke-width="1"/><text x="16" y="264.0" font-size="12">E3</text>
<line x1="52" x2="772" y1="255.2" y2="255.2" stroke="#ddd" stroke-width="1"/><text x="16" y="259.2" font-size="12">F3</text>
<line x1="52" x2="772" y1="250.5" y2="250.5" stroke="#ddd" stroke-width="1"/><text x="16" y="254.5" font-size="12">F#3</text>
<line x1="52" x2="772" y1="245.7" y2="245.7" stroke="#ddd" stroke-width="1"/><text x="16" y="249.7" font-size="12">G3</text>
<line x1="52" x2="772" y1="240.9" y2="240.9" stroke="#ddd" stroke-width="1"/><text x="16" y="244.9" font-size="12">G#3</text>
<line x1="52" x2="772" y1="236.1" y2="236.1" stroke="#ddd" stroke-width="1"/><text x="16" y="240.1" font-size="12">A3</text>
<line x1="52" x2="772" y1="231.4" y2="231.4" stroke="#ddd" stroke-width="1"/><text x="16" y="235.4" font-size="12">A#3</text>
<line x1="52" x2="772" y1="226.6" y2="226.6" stroke="#ddd" stroke-width="1"/><text x="16" y="230.6" font-size="12">B3</text>
<line x1="52" x2="772" y1="221.8" y2="221.8" stroke="#ddd" stroke-width="1"/><text x="16" y="225.8" font-size="12">C4</text>
<line x1="52" x2="772" y1="217.0" y2="217.0" stroke="#ddd" stroke-width="1"/><text x="16" y="221.0" font-size="12">C#4</text>
<line x1="52" x2="772" y1="212.3" y2="212.3" stroke="#ddd" stroke-width="1"/><text x="16" y="216.3" font-size="12">D4</text>
<line x1="52" x2="772" y1="207.5" y2="207.5" stroke="#ddd" stroke-width="1"/><text x="16" y="211.5" font-size="12">D#4</text>
<line x1="52" x2="772" y1="202.7" y2="202.7" stroke="#ddd" stroke-width="1"/><text x="16" y="206.7" font-size="12">E4</text>
<line x1="52" x2="772" y1="198.0" y2="198.0" stroke="#ddd" stroke-width="1"/><text x="16" y="202.0" font-size="12">F4</text>
<line x1="52" x2="772" y1="193.2" y2="193.2" stroke="#ddd" stroke-width="1"/><text x="16" y="197.2" font-size="12">F#4</text>
<line x1="52" x2="772" y1="188.4" y2="188.4" stroke="#ddd" stroke-width="1"/><text x="16" y="192.4" font-size="12">G4</text>
<line x1="52" x2="772" y1="183.6" y2="183.6" stroke="#ddd" stroke-width="1"/><text x="16" y="187.6" font-size="12">G#4</text>
<line x1="52" x2="772" y1="178.9" y2="178.9" stroke="#ddd" stroke-width="1"/><text x="16" y="182.9" font-size="12">A4</text>
<line x1="52" x2="772" y1="174.1" y2="174.1" stroke="#ddd" stroke-width="1"/><text x="16" y="178.1" font-size="12">A#4</text>
<line x1="52" x2="772" y1="169.3" y2="169.3" stroke="#ddd" stroke-width="1"/><text x="16" y="173.3" font-size="12">B4</text>
<line x1="52" x2="772" y1="164.5" y2="164.5" stroke="#ddd" stroke-width="1"/><text x="16" y="168.5" font-size="12">C5</text>
<line x1="52" x2="772" y1="159.8" y2="159.8" stroke="#ddd" stroke-width="1"/><text x="16" y="163.8" font-size="12">C#5</text>
<line x1="52" x2="772" y1="155.0" y2="155.0" stroke="#ddd" stroke-width="1"/><text x="16" y="159.0" font-size="12">D5</text>
<line x1="52" x2="772" y1="150.2" y2="150.2" stroke="#ddd" stroke-width="1"/><text x="16" y="154.2" font-size="12">D#5</text>
<line x1="52" x2="772" y1="145.5" y2="145.5" stroke="#ddd" stroke-width="1"/><text x="16" y="149.5" font-size="12">E5</text>
<line x1="52" x2="772" y1="140.7" y2="140.7" stroke="#ddd" stroke-width="1"/><text x="16" y="144.7" font-size="12">F5</text>
<line x1="52" x2="772" y1="135.9" y2="135.9" stroke="#ddd" stroke-width="1"/><text x="16" y="139.9" font-size="12">F#5</text>
<line x1="52" x2="772" y1="131.1" y2="131.1" stroke="#ddd" stroke-width="1"/><text x="16" y="135.1" font-size="12">G5</text>
<line x1="52" x2="772" y1="126.4" y2="126.4" stroke="#ddd" stroke-width="1"/><text x="16" y="130.4" font-size="12">G#5</text>
<line x1="52" x2="772" y1="121.6" y2="121.6" stroke="#ddd" stroke-width="1"/><text x="16" y="125.6" font-size="12">A5</text>
<line x1="52" x2="772" y1="116.8" y2="116.8" stroke="#ddd" stroke-width="1"/><text x="16" y="120.8" font-size="12">A#5</text>
<line x1="52" x2="772" y1="112.0" y2="112.0" stroke="#ddd" stroke-width="1"/><text x="16" y="116.0" font-size="12">B5</text>
<line x1="52" x2="772" y1="107.3" y2="107.3" stroke="#ddd" stroke-width="1"/><text x="16" y="111.3" font-size="12">C6</text>
<line x1="52" x2="772" y1="102.5" y2="102.5" stroke="#ddd" stroke-width="1"/><text x="16" y="106.5" font-size="12">C#6</text>
<line x1="52" x2="772" y1="97.7" y2="97.7" stroke="#ddd" stroke-width="1"/><text x="16" y="101.7" font-size="12">D6</text>
<line x1="52" x2="772" y1="93.0" y2="93.0" stroke="#ddd" stroke-width="1"/><text x="16" y="97.0" font-size="12">D#6</text>
<line x1="52" x2="772" y1="88.2" y2="88.2" stroke="#ddd" stroke-width="1"/><text x="16" y="92.2" font-size="12">E6</text>
<line x1="52" x2="772" y1="83.4" y2="83.4" stroke="#ddd" stroke-width="1"/><text x="16" y="87.4" font-size="12">F6</text>
<line x1="52" x2="772" y1="78.6" y2="78.6" stroke="#ddd" stroke-width="1"/><text x="16" y="82.6" font-size="12">F#6</text>
<line x1="52" x2="772" y1="73.9" y2="73.9" stroke="#ddd" stroke-width="1"/><text x="16" y="77.9" font-size="12">G6</text>
<line x1="52" x2="772" y1="69.1" y2="69.1" stroke="#ddd" stroke-width="1"/><text x="16" y="73.1" font-size="12">G#6</text>
<line x1="52" x2="772" y1="64.3" y2="64.3" stroke="#ddd" stroke-width="1"/><text x="16" y="68.3" font-size="12">A6</text>
<line x1="52" x2="772" y1="59.5" y2="59.5" stroke="#ddd" stroke-width="1"/><text x="16" y="63.5" font-size="12">A#6</text>
<line x1="52" x2="772" y1="54.8" y2="54.8" stroke="#ddd" stroke-width="1"/><text x="16" y="58.8" font-size="12">B6</text>
<line x1="52" x2="772" y1="50.0" y2="50.0" stroke="#ddd" stroke-width="1"/><text x="16" y="54.0" font-size="12">C7</text>
<polyline points="52.0,154.0 54.8,153.6 57.3,153.1 60.1,152.6 62.6,152.6 83.0,178.4 85.6,178.4 88.3,179.8 90.9,180.3 93.7,180.3 96.5,180.8 125.9,149.3 128.6,149.3 131.2,149.3 134.0,148.8 136.7,149.3 139.3,149.3 142.1,149.3 144.8,149.3 147.4,149.3 150.2,149.3 152.7,149.3 155.5,149.3 158.3,149.3 160.8,149.3 163.6,149.8 166.1,149.8 168.9,150.7 171.7,152.6 174.2,153.6 177.0,154.0 179.6,154.0 182.3,154.5 185.1,154.5 187.7,154.5 190.4,154.5 193.2,154.5 195.8,154.0 198.5,154.0 201.1,154.0 203.9,153.6 206.6,153.1 209.2,152.6 212.0,152.6 214.5,152.1 217.3,151.7 220.1,151.2 222.6,151.2 225.4,150.7 227.9,151.2 230.7,151.7 233.5,151.7 236.1,152.1 238.8,152.1 241.6,152.6 244.2,153.1 246.9,153.6 249.5,154.5 252.3,156.4 255.0,158.3 257.6,160.7 260.4,162.2 262.9,163.1 265.7,163.6 268.5,163.6 271.0,163.6 273.8,163.6 276.3,163.1 279.1,163.6 281.9,163.1 284.4,163.1 287.2,163.1 289.8,163.1 292.5,162.6 295.3,162.6 297.9,161.7 300.6,160.7 303.4,159.8 306.0,158.8 308.7,156.9 311.3,156.0 314.1,155.5 316.8,155.0 319.4,155.0 322.2,155.0 324.7,155.0 327.5,155.0 330.3,154.5 332.8,154.5 335.6,154.5 338.1,154.5 340.9,154.0 343.7,153.6 346.3,152.6 349.0,151.7 351.8,150.7 354.4,150.2 357.1,150.2 359.7,150.2 362.5,149.8 365.2,149.8 367.8,149.8 370.6,149.8 373.1,149.8 375.9,149.8 378.7,149.8 381.2,149.8 384.0,149.8 386.5,150.2 389.3,150.7 392.1,151.7 394.6,153.1 397.4,154.0 400.0,154.5 402.7,155.0 405.5,155.0 408.1,155.0 410.8,155.0 413.6,155.5 416.2,155.5 418.9,155.5 421.5,155.5 424.3,155.5 427.0,155.5 429.6,155.0 432.4,155.0 434.9,155.0 437.7,155.0 440.5,155.0 443.0,154.5 445.8,154.5 448.3,154.0 451.1,153.6 453.9,153.1 456.5,152.6 459.2,152.1 462.0,151.2 464.6,150.2 467.3,150.2 469.9,149.8 472.7,149.8 475.4,149.8 478.0,149.8 480.8,149.8 483.3,149.8 486.1,150.2 488.9,150.2 491.4,150.2 494.2,150.2 496.7,150.7 499.5,151.2 502.3,151.2 504.8,152.6 507.6,153.6 510.4,154.0 512.9,154.5 515.7,154.5 518.3,155.0 521.0,154.5 523.8,154.5 526.4,154.5 529.1,155.0 531.7,155.0 534.5,155.0 537.2,155.5 539.8,157.9 542.6,162.6 545.1,163.6 547.9,163.6 550.7,163.6 553.2,163.6 556.0,163.6 558.5,163.6 561.3,163.6 564.1,163.6 566.6,163.6 569.4,163.6 572.2,163.6 574.8,163.6 577.5,163.1 580.1,161.7 582.9,157.9 585.6,156.4 588.2,156.0 591.0,156.0 593.5,155.5 596.3,155.5 599.1,155.5 601.6,155.5 604.4,155.5 606.9,155.5 609.7,154.5 612.5,152.6 615.0,151.2 617.8,150.7 620.6,150.2 623.1,150.2 625.9,150.2 628.5,150.2 631.2,150.2 634.0,150.2 636.6,150.2 639.3,150.2 641.9,150.2 644.7,150.2 647.4,150.2 650.0,150.2 652.8,150.2 655.3,150.7 658.1,150.7 660.9,151.2 663.4,152.1 666.2,153.6 668.7,154.5 671.5,155.0 674.3,155.5 676.8,155.5 679.6,155.5 682.4,156.0 685.0,156.0 687.7,156.0 690.3,156.0 693.1,156.0 695.8,156.0 698.4,155.5 701.2,155.5 703.7,155.5 706.5,155.5 709.3,155.0 711.8,154.0 714.6,153.1 717.1,152.1 719.9,151.7 722.7,151.2 725.2,151.2 728.0,150.7 730.8,150.7 733.3,150.7 736.1,150.7 738.7,150.7 741.4,150.7 744.2,150.7 746.8,150.7 749.5,151.2 752.1,152.1 754.9,153.1 757.6,154.0 760.2,154.5 763.0,154.5 765.5,154.5 768.3,155.0 771.1,155.0" fill="none" stroke="#111111" stroke-width="2" opacity="0.9"/>
<polyline points="52.0,153.8 54.8,153.5 57.3,153.3 60.1,152.8 62.6,152.7 65.4,246.0 68.2,246.0 70.8,246.0 73.5,246.0 76.1,245.6 78.9,244.0 81.6,178.0 84.2,178.5 87.0,178.8 89.7,180.3 92.3,180.1 95.1,180.3 97.6,181.0 100.4,244.3 103.2,244.5 105.7,244.3 108.5,244.0 111.0,243.3 113.8,242.7 116.6,242.1 119.1,241.8 121.9,241.4 124.5,240.5 127.2,149.3 130.0,148.9 132.6,149.0 135.3,149.1 138.1,149.1 140.7,149.2 143.4,149.2 146.0,149.3 148.8,149.3 151.5,149.4 154.1,149.4 156.9,149.4 159.4,149.5 162.2,149.5 165.0,149.8 167.5,150.2 170.3,151.5 172.8,153.3 175.6,153.9 178.4,154.1 181.0,154.3 183.7,154.3 186.3,154.3 189.1,154.4 191.8,154.3 194.4,154.3 197.2,154.2 199.9,153.9 202.5,153.7 205.3,153.3 207.8,153.0 210.6,152.6 213.4,152.2 215.9,151.9 218.7,151.6 221.2,151.2 224.0,151.0 226.8,151.1 229.3,151.5 232.1,151.8 234.7,152.0 237.4,152.1 240.2,152.3 242.8,152.7 245.5,153.2 248.3,154.1 250.9,155.5 253.6,157.3 256.2,159.5 259.0,161.4 261.7,162.5 264.3,163.4 267.1,163.5 269.6,163.5 272.4,163.4 275.2,163.3 277.7,163.3 280.5,163.4 283.0,163.3 285.8,163.2 288.6,163.0 291.2,162.8 293.9,162.6 296.7,162.1 299.3,161.0 302.0,160.3 304.6,159.1 307.4,158.0 310.1,156.2 312.7,155.6 315.5,155.2 318.0,154.9 320.8,154.8 323.6,154.8 326.1,154.8 328.9,154.7 331.4,154.7 334.2,154.7 337.0,154.6 339.5,154.5 342.3,154.0 344.9,153.2 347.6,151.9 350.4,151.2 353.0,150.6 355.7,150.2 358.5,150.0 361.1,150.0 363.8,149.9 366.4,149.8 369.2,149.8 371.9,149.7 374.5,149.8 377.3,149.8 379.8,149.8 382.6,149.8 385.4,149.9 387.9,150.2 390.7,151.0 393.2,152.4 396.0,153.7 398.8,154.3 401.4,154.7 404.1,154.8 406.9,155.0 409.5,155.2 412.2,155.3 414.8,155.3 417.6,155.4 420.3,155.4 422.9,155.3 425.7,155.3 428.2,155.2 431.0,155.1 433.8,155.0 436.3,155.0 439.1,154.9 441.6,154.7 444.4,154.6 447.2,154.3 449.7,153.8 452.5,153.4 455.1,153.0 457.8,152.5 460.6,151.5 463.2,150.6 465.9,150.2 468.7,150.0 471.3,150.0 474.0,149.9 476.6,149.9 479.4,149.9 482.1,150.0 484.7,150.0 487.5,150.0 490.0,150.1 492.8,150.3 495.6,150.5 498.1,150.8 500.9,151.2 503.4,151.9 506.2,153.0 509.0,153.7 511.5,154.3 514.3,154.6 517.1,154.8 519.7,154.8 522.4,154.8 525.0,154.8 527.8,154.8 530.5,154.8 533.1,154.8 535.9,154.9 538.4,156.2 541.2,161.1 544.0,163.1 546.5,163.6 549.3,163.7 551.8,163.7 554.6,163.8 557.4,163.8 559.9,163.8 562.7,163.7 565.5,163.6 568.0,163.6 570.8,163.7 573.4,163.6 576.1,163.3 578.9,162.4 581.5,159.9 584.2,156.8 586.8,156.2 589.6,155.9 592.3,155.7 594.9,155.5 597.7,155.5 600.2,155.5 603.0,155.6 605.8,155.5 608.3,155.2 611.1,153.5 613.6,151.5 616.4,150.6 619.2,150.5 621.7,150.4 624.5,150.4 627.3,150.3 629.9,150.3 632.6,150.3 635.2,150.3 638.0,150.3 640.7,150.3 643.3,150.4 646.1,150.4 648.6,150.4 651.4,150.4 654.2,150.4 656.7,150.5 659.5,150.9 662.0,151.6 664.8,153.1 667.6,154.3 670.1,154.9 672.9,155.2 675.7,155.4 678.2,155.6 681.0,155.7 683.6,155.8 686.3,155.8 689.1,155.8 691.7,155.8 694.4,155.7 697.0,155.7 699.8,155.7 702.5,155.6 705.1,155.5 707.9,155.2 710.4,154.6 713.2,153.6 716.0,152.4 718.5,151.9 721.3,151.5 723.8,151.2 726.6,151.0 729.4,150.9 731.9,150.8 734.7,150.7 737.5,150.8 740.1,150.8 742.8,150.8 745.4,150.9 748.2,151.1 750.9,151.6 753.5,152.7 756.3,153.7 758.8,154.2 761.6,154.5 764.4,154.6 766.9,154.8 769.7,155.0" fill="none" stroke="#4477AA" stroke-width="2" opacity="0.9"/>
<polyline points="52.0,154.3 54.8,154.3 57.3,154.3 60.1,154.3 62.6,154.3 65.4,154.3 68.2,154.3 70.8,154.3 73.5,154.3 76.1,184.9 78.9,184.9 81.6,184.9 84.2,184.9 87.0,182.7 89.7,182.7 92.3,182.7 95.1,184.9 97.6,184.9 100.4,184.9 103.2,184.9 105.7,184.9 108.5,154.3 111.0,152.8 113.8,152.8 116.6,151.4 119.1,151.4 121.9,149.9 124.5,151.4 127.2,151.4 130.0,148.5 132.6,148.5 135.3,148.5 138.1,148.5 140.7,148.5 143.4,149.9 146.0,149.9 148.8,149.9 151.5,149.9 154.1,149.9 156.9,149.9 159.4,149.9 162.2,149.9 165.0,149.9 167.5,149.9 170.3,149.9 172.8,149.9 175.6,149.9 178.4,97.8 181.0,97.0 183.7,97.0 186.3,97.0 189.1,97.0 191.8,97.0 194.4,154.3 197.2,154.3 199.9,154.3 202.5,154.3 205.3,154.3 207.8,154.3 210.6,151.4 213.4,151.4 215.9,151.4 218.7,151.4 221.2,151.4 224.0,152.8 226.8,149.9 229.3,149.9 232.1,149.9 234.7,151.4 237.4,151.4 240.2,151.4 242.8,151.4 245.5,151.4 248.3,151.4 250.9,151.4 253.6,151.4 256.2,167.3 259.0,165.6 261.7,165.6 264.3,163.9 267.1,163.9 269.6,163.9 272.4,163.9 275.2,163.9 277.7,163.9 280.5,163.9 283.0,163.9 285.8,163.9 288.6,163.9 291.2,163.9 293.9,163.9 296.7,162.2 299.3,162.2 302.0,162.2 304.6,162.2 307.4,162.2 310.1,163.9 312.7,162.2 315.5,162.2 318.0,163.9 320.8,97.8 323.6,97.8 326.1,64.1 328.9,64.1 331.4,64.1 334.2,64.1 337.0,64.1 339.5,64.1 342.3,154.3 344.9,154.3 347.6,154.3 350.4,149.9 353.0,149.9 355.7,149.9 358.5,149.9 361.1,149.9 363.8,149.9 366.4,149.9 369.2,149.9 371.9,149.9 374.5,149.9 377.3,149.9 379.8,149.9 382.6,149.9 385.4,149.9 387.9,149.9 390.7,149.9 393.2,149.9 396.0,154.3 398.8,154.3 401.4,97.8 404.1,97.8 406.9,97.8 409.5,97.8 412.2,97.8 414.8,97.8 417.6,64.6 420.3,64.6 422.9,64.6 425.7,64.6 428.2,64.6 431.0,64.1 433.8,64.1 436.3,64.1 439.1,64.1 441.6,64.1 444.4,64.1 447.2,64.1 449.7,64.1 452.5,154.3 455.1,149.9 457.8,149.9 460.6,149.9 463.2,149.9 465.9,148.5 468.7,149.9 471.3,149.9 474.0,149.9 476.6,149.9 479.4,149.9 482.1,149.9 484.7,149.9 487.5,149.9 490.0,149.9 492.8,149.9 495.6,151.4 498.1,152.8 500.9,151.4 503.4,151.4 506.2,151.4 509.0,151.4 511.5,151.4 514.3,97.8 517.1,97.8 519.7,64.1 522.4,64.1 525.0,64.1 527.8,64.1 530.5,64.1 533.1,64.1 535.9,64.1 538.4,154.3 541.2,154.3 544.0,165.6 546.5,165.6 549.3,163.9 551.8,163.9 554.6,163.9 557.4,163.9 559.9,163.9 562.7,163.9 565.5,163.9 568.0,163.9 570.8,163.9 573.4,163.9 576.1,163.9 578.9,163.9 581.5,163.9 584.2,165.6 586.8,98.6 589.6,98.6 592.3,97.8 594.9,97.8 597.7,97.8 600.2,97.8 603.0,64.6 605.8,155.8 608.3,155.8 611.1,155.8 613.6,155.8 616.4,154.3 619.2,149.9 621.7,149.9 624.5,149.9 627.3,149.9 629.9,149.9 632.6,149.9 635.2,149.9 638.0,149.9 640.7,149.9 643.3,149.9 646.1,149.9 648.6,149.9 651.4,149.9 654.2,149.9 656.7,149.9 659.5,59.6 662.0,149.9 664.8,149.9 667.6,151.4 670.1,97.8 672.9,98.6 675.7,98.6 678.2,98.6 681.0,98.6 683.6,98.6 686.3,98.6 689.1,98.6 691.7,98.6 694.4,98.6 697.0,98.6 699.8,155.8 702.5,155.8 705.1,155.8 707.9,155.8 710.4,155.8 713.2,154.3 716.0,154.3 718.5,152.8 721.3,151.4 723.8,151.4 726.6,151.4 729.4,151.4 731.9,151.4 734.7,151.4 737.5,151.4 740.1,151.4 742.8,151.4 745.4,151.4 748.2,151.4 750.9,151.4 753.5,151.4 756.3,151.4 758.8,151.4 761.6,64.6 764.4,64.6 766.9,64.6 769.7,64.6" fill="none" stroke="#AA5544" stroke-width="2" opacity="0.9"/>


<text x="52" y="292" font-size="12">Expected source note and observed audio note are shown as horizontal dashed lines.</text>
</svg>
